<?xml version="1.0" standalone="no"?>
<!DOCTYPE svg PUBLIC "-//W3C//DTD SVG 20010904//EN"
 "http://www.w3.org/TR/2001/REC-SVG-20010904/DTD/svg10.dtd">
<svg version="1.0" xmlns="http://www.w3.org/2000/svg"
 width="260.000000pt" height="260.000000pt" viewBox="0 0 260.000000 260.000000"
 preserveAspectRatio="xMidYMid meet">
<metadata>
Created by potrace 1.11, written by Peter Selinger 2001-2013
</metadata>
<g transform="translate(0.000000,260.000000) scale(0.100000,-0.100000)"
fill="#000000" stroke="none">
<path d="M2450 2260 c-13 -8 -12 -10 3 -10 9 0 17 5 17 10 0 12 -1 12 -20 0z"/>
<path d="M2360 2240 c-25 -10 -81 -33 -125 -50 -97 -38 -113 -56 -107 -119 l4
-46 -130 -130 c-71 -72 -144 -147 -162 -167 -30 -36 -31 -38 -11 -38 15 0 25
9 32 29 7 21 19 32 39 36 16 3 34 13 41 21 17 20 32 17 26 -5 -4 -17 -2 -18
24 -9 18 6 31 19 35 34 4 14 16 27 30 30 17 4 24 13 24 30 0 13 11 34 25 46
14 12 25 27 25 34 0 6 7 15 16 18 8 3 13 10 10 15 -7 11 22 23 35 15 5 -3 8 5
6 17 -2 20 3 22 46 24 42 2 47 0 42 -16 -5 -14 -1 -19 12 -19 17 -1 17 -2 -1
-15 -14 -11 -22 -12 -27 -4 -9 14 -29 3 -29 -17 0 -8 -4 -14 -10 -14 -5 0 -10
-4 -10 -10 0 -5 7 -10 15 -10 8 0 15 7 15 17 0 9 3 13 7 10 3 -4 12 -2 20 4 7
6 13 8 13 5 0 -4 14 2 31 14 16 12 32 20 35 18 6 -7 -69 -58 -84 -58 -7 0 -12
-9 -12 -20 0 -23 19 -19 67 16 17 13 42 24 54 24 21 0 22 -1 4 -20 -10 -11
-19 -32 -21 -47 -1 -15 -8 -29 -13 -31 -6 -2 -11 -12 -11 -23 0 -10 -4 -19 -8
-19 -17 0 -6 -43 15 -57 21 -14 30 -12 125 37 57 29 109 57 116 62 8 7 12 38
12 89 l0 79 -35 0 c-28 0 -35 4 -35 20 0 16 -7 20 -36 20 -20 0 -33 4 -29 10
3 5 26 7 53 3 38 -4 45 -3 35 7 -7 7 -28 13 -48 12 -19 -1 -35 3 -35 8 0 6 6
10 13 10 6 1 -1 7 -18 15 l-30 13 30 2 30 1 -25 11 c-22 9 -149 7 -175 -3 -5
-2 -12 1 -15 6 -4 10 51 42 104 60 16 6 30 18 32 28 3 21 1 20 -56 -3z m-100
-94 c0 -2 -9 -6 -20 -9 -11 -3 -20 -1 -20 4 0 5 9 9 20 9 11 0 20 -2 20 -4z"/>
<path d="M320 2170 l34 -32 -24 -14 c-14 -7 -19 -13 -12 -14 7 0 10 -5 7 -10
-4 -6 -11 -8 -16 -5 -5 3 -6 -1 -3 -9 3 -9 9 -14 14 -11 13 8 51 -41 44 -58
-5 -13 0 -17 19 -17 14 0 29 5 32 10 3 6 24 10 46 10 46 0 50 14 10 37 l-29
17 25 13 c37 19 45 16 43 -14 -3 -49 -1 -55 19 -48 14 4 21 0 26 -15 3 -11 20
-27 36 -35 28 -15 29 -15 29 6 0 14 -5 19 -13 16 -27 -10 -39 7 -26 36 12 26
39 38 39 17 0 -5 9 -10 20 -10 13 0 24 -10 30 -25 11 -29 35 -33 49 -7 10 16
12 16 48 -4 21 -12 47 -38 57 -58 11 -20 25 -36 32 -36 11 0 27 23 29 45 5 46
35 75 35 34 0 -48 39 -76 67 -48 9 9 19 6 41 -10 18 -12 45 -21 67 -21 28 0
38 -5 42 -20 3 -11 9 -20 14 -20 6 0 13 -10 18 -22 6 -17 9 -10 14 32 4 30 3
58 -2 63 -6 6 -1 18 10 31 20 21 21 21 35 2 14 -19 68 -31 57 -12 -4 5 1 7 11
3 10 -4 22 -7 27 -7 5 0 9 -7 9 -16 0 -12 6 -15 23 -9 26 8 25 8 101 2 45 -4
64 -10 77 -26 20 -25 29 -27 29 -5 0 9 -20 24 -47 36 -27 11 -71 41 -99 67
-83 74 -125 101 -158 101 -37 0 -102 -32 -133 -66 -44 -48 -149 -24 -275 63
-46 32 -48 32 -48 11 0 -25 -9 -20 -15 10 -2 11 -9 30 -17 42 -12 21 -18 22
-123 17 -119 -5 -226 -24 -205 -37 9 -6 8 -13 -4 -32 -9 -14 -14 -27 -11 -30
11 -10 -20 -15 -42 -7 -31 11 -29 21 9 44 l32 18 -25 10 c-13 5 -44 18 -68 29
l-45 20 34 -32z m554 -100 c10 0 16 -3 13 -7 -4 -3 -2 -12 4 -19 9 -10 7 -15
-5 -20 -9 -3 -16 -15 -16 -25 0 -23 1 -23 -38 -3 -24 11 -32 22 -32 42 l0 26
16 -22 c15 -22 44 -30 44 -13 0 5 -7 16 -15 25 -8 8 -15 20 -15 27 0 10 3 10
12 1 7 -7 21 -12 32 -12z m286 -62 c0 -5 -4 -8 -10 -8 -5 0 -10 10 -10 23 0
18 2 19 10 7 5 -8 10 -18 10 -22z m-64 -30 c16 -17 24 -28 17 -24 -6 3 -14 2
-17 -2 -8 -13 -54 -2 -60 14 -3 8 -1 14 4 14 5 0 7 7 4 15 -11 26 21 16 52
-17z"/>
<path d="M300 2045 c7 -8 20 -15 29 -15 13 1 13 3 -3 15 -26 19 -42 19 -26 0z"/>
<path d="M520 1956 c0 -9 7 -16 16 -16 9 0 14 5 12 12 -6 18 -28 21 -28 4z"/>
<path d="M2165 1909 c-4 -6 -1 -16 6 -21 10 -7 7 -7 -8 -3 -13 3 -23 2 -23 -3
0 -5 -9 -12 -20 -15 -40 -10 -20 -26 28 -21 26 3 57 6 70 6 12 0 22 6 22 14 0
8 -7 14 -15 14 -8 0 -15 8 -15 17 0 9 -3 13 -7 10 -3 -4 -12 -2 -19 4 -8 7
-14 6 -19 -2z"/>
<path d="M1220 1885 c0 -14 5 -25 10 -25 6 0 15 -10 20 -22 11 -28 13 -5 4 41
-8 37 -34 42 -34 6z"/>
<path d="M2190 1830 c0 -5 5 -10 11 -10 5 0 7 5 4 10 -3 6 -8 10 -11 10 -2 0
-4 -4 -4 -10z"/>
<path d="M2100 1815 c-7 -8 -16 -13 -20 -10 -10 6 -42 -30 -34 -38 8 -8 35 3
29 13 -6 9 53 22 66 14 5 -3 9 4 9 15 0 25 -31 29 -50 6z"/>
<path d="M2005 1740 c-16 -18 -16 -18 4 -13 25 6 35 19 22 27 -4 3 -16 -3 -26
-14z"/>
<path d="M1902 1735 c-13 -7 -20 -15 -15 -18 15 -9 51 3 57 19 6 17 -11 17
-42 -1z"/>
<path d="M1202 1715 c-21 -9 -23 -14 -17 -54 l7 -44 -32 7 c-18 3 -45 6 -61 6
-25 0 -29 4 -29 27 0 14 -3 24 -6 20 -4 -3 -20 1 -36 9 -35 18 -61 12 -56 -13
4 -19 -31 -43 -63 -43 -22 0 -33 -16 -18 -26 7 -4 89 -11 183 -15 94 -4 215
-15 268 -23 54 -9 102 -16 108 -16 19 0 10 27 -12 38 l-23 11 23 0 c13 1 35
-11 50 -27 15 -16 47 -34 72 -41 72 -20 100 -35 100 -53 0 -9 4 -20 10 -23 5
-3 15 -16 22 -28 9 -19 9 -20 -3 -12 -8 6 -3 -1 11 -14 14 -13 18 -20 11 -15
-9 4 -5 -6 8 -24 12 -18 27 -32 32 -32 6 0 7 -5 3 -12 -4 -6 -3 -8 4 -4 6 3
13 2 17 -4 3 -5 21 -10 40 -10 27 0 33 4 33 23 0 12 4 35 7 50 5 20 3 33 -10
47 -15 17 -15 20 0 43 14 21 14 25 1 30 -8 3 -16 18 -18 34 -2 22 -8 28 -27
28 -13 0 -35 13 -50 28 -31 31 -41 34 -41 12 0 -12 -11 -7 -39 15 -40 32 -110
62 -124 53 -5 -3 -12 -15 -17 -28 -9 -23 -10 -23 -54 21 -44 43 -70 57 -60 31
2 -7 -7 -19 -21 -27 -16 -9 -25 -22 -25 -38 0 -21 -3 -23 -27 -17 -15 3 -36
17 -48 31 -11 13 -28 24 -38 24 -20 0 -23 16 -4 23 8 3 6 10 -8 23 -16 15 -25
17 -43 9z"/>
<path d="M2 1653 c3 -30 32 -43 51 -24 7 7 5 16 -8 31 -26 29 -47 26 -43 -7z"/>
<path d="M700 1672 c0 -5 7 -13 16 -16 26 -10 124 -7 124 4 0 6 -17 10 -39 10
-21 0 -53 3 -70 6 -18 4 -31 2 -31 -4z"/>
<path d="M340 1656 c0 -8 -6 -16 -12 -19 -10 -3 -8 -9 5 -24 9 -11 17 -29 17
-41 0 -12 3 -23 8 -23 44 -7 70 -4 152 16 l95 23 -73 1 c-40 1 -82 -4 -92 -9
-17 -9 -20 -6 -26 17 -10 49 -13 53 -34 53 -11 0 -20 5 -20 10 0 6 -4 10 -10
10 -5 0 -10 -6 -10 -14z"/>
<path d="M0 1551 c0 -32 3 -39 15 -35 14 6 54 9 153 12 28 2 42 6 42 16 0 25
-24 34 -117 41 l-93 7 0 -41z"/>
<path d="M828 1558 c-18 -3 -35 -5 -39 -2 -4 2 -12 -3 -19 -11 -15 -18 -5 -75
37 -210 37 -120 33 -117 209 -114 173 3 366 1 509 -5 l100 -4 -100 9 c-55 5
-121 13 -147 17 -26 5 -49 6 -50 3 -2 -3 -43 -3 -93 0 -49 3 -72 6 -50 7 37 2
39 4 21 17 -24 18 -98 19 -189 1 -37 -7 -64 -9 -60 -5 5 5 30 13 56 18 27 5
50 11 53 14 3 2 -4 31 -15 63 -11 33 -25 85 -31 117 -6 31 -17 57 -23 57 -9 0
-9 2 -1 8 7 4 56 5 110 3 l99 -3 -55 -13 c-30 -8 -67 -11 -82 -8 -24 5 -28 2
-27 -18 0 -13 8 -49 18 -79 15 -48 20 -55 40 -52 30 5 71 -6 71 -18 0 -5 -18
-10 -39 -12 -37 -3 -39 -4 -25 -22 17 -23 118 -41 110 -20 -3 7 -8 29 -12 48
-5 28 -3 37 10 42 16 6 23 34 9 34 -5 0 -9 25 -10 55 l-2 55 62 0 c72 0 263
-34 283 -51 11 -9 62 -3 52 7 -6 5 -139 33 -238 49 -136 23 -475 37 -542 23z
m-27 -80 c8 -32 14 -38 37 -39 24 -2 24 -2 4 -6 -18 -4 -21 -10 -18 -30 3 -14
6 -26 8 -27 2 -1 17 -6 33 -12 27 -9 30 -14 27 -44 -3 -30 -2 -32 12 -21 14
12 16 10 16 -8 0 -11 -4 -21 -10 -21 -19 0 -10 -21 13 -30 18 -7 16 -9 -19 -9
-23 -1 -46 5 -52 12 -17 22 -63 195 -67 254 -3 32 -2 49 1 38 3 -11 10 -37 15
-57z m294 -237 c-3 -6 -34 -10 -73 -9 l-67 2 60 3 c33 2 64 8 69 13 12 12 20
5 11 -9z"/>
<path d="M545 1545 c-80 -17 -40 -17 55 -1 44 8 60 14 40 14 -19 0 -62 -6 -95
-13z"/>
<path d="M268 1538 c9 -9 15 -9 24 0 9 9 7 12 -12 12 -19 0 -21 -3 -12 -12z"/>
<path d="M2224 1524 c-4 -14 -4 -55 -1 -90 5 -65 -7 -93 -25 -60 -5 9 -15 16
-22 16 -7 0 -21 9 -31 20 -23 25 -31 19 -39 -30 -3 -22 -11 -40 -18 -40 -23 0
2 -13 33 -16 18 -2 35 -7 38 -10 3 -3 -3 -4 -15 -2 -11 1 -21 -1 -21 -7 0 -27
11 -45 28 -45 11 0 19 -7 19 -17 0 -15 2 -14 15 3 13 18 14 16 11 -17 -3 -54
9 -81 36 -77 21 3 23 9 24 65 1 67 -9 98 -25 75 -7 -11 -9 -11 -14 1 -7 19 8
41 22 33 6 -4 11 -3 11 3 0 5 -5 13 -10 16 -7 4 -7 11 -2 18 12 16 22 123 15
159 -7 35 -21 36 -29 2z"/>
<path d="M405 1515 l-40 -14 40 6 c22 3 49 9 60 14 l20 8 -20 0 c-11 0 -38 -7
-60 -14z"/>
<path d="M615 1523 c-11 -2 -43 -9 -72 -14 -56 -11 -55 -10 -68 -104 -4 -37
-4 -38 5 -9 9 27 13 30 45 26 45 -5 50 23 6 33 -21 4 -28 11 -24 21 6 16 21
20 106 29 31 4 57 11 57 16 0 9 -19 10 -55 2z"/>
<path d="M262 1479 c-39 -15 -56 -29 -68 -52 l-15 -32 26 33 c15 17 34 32 43
33 22 1 101 37 82 38 -8 0 -39 -9 -68 -20z"/>
<path d="M355 1476 c-28 -7 -57 -16 -65 -21 -8 -5 -21 -10 -29 -12 -8 -1 -18
-8 -22 -15 -17 -27 -79 -211 -79 -234 0 -23 1 -23 20 -7 11 10 20 30 21 48 0
16 15 59 32 95 l32 65 90 5 90 5 -73 9 c-85 10 -83 20 8 39 35 7 65 18 68 25
5 15 -26 14 -93 -2z"/>
<path d="M1550 1450 c0 -5 5 -10 10 -10 6 0 10 5 10 10 0 6 -4 10 -10 10 -5 0
-10 -4 -10 -10z"/>
<path d="M1940 1415 c0 -7 6 -18 14 -22 8 -4 14 -17 13 -27 -2 -21 43 -42 69
-32 11 4 3 17 -30 51 -46 46 -66 56 -66 30z"/>
<path d="M684 1379 c-7 -12 13 -29 35 -29 8 0 11 6 7 16 -3 9 -6 18 -6 20 0 9
-29 3 -36 -7z"/>
<path d="M2036 1291 c-3 -5 1 -11 9 -15 9 -3 15 0 15 9 0 16 -16 20 -24 6z"/>
<path d="M450 1263 c0 -10 -3 -28 -6 -40 -5 -18 -2 -23 12 -22 11 0 14 3 7 5
-7 3 -9 18 -6 40 3 19 3 34 -1 34 -3 0 -6 -8 -6 -17z"/>
<path d="M1387 1248 c16 -8 36 -8 65 -1 l43 11 -65 0 c-53 1 -61 -1 -43 -10z"/>
<path d="M1530 1250 c0 -5 7 -10 16 -10 8 0 12 5 9 10 -3 6 -10 10 -16 10 -5
0 -9 -4 -9 -10z"/>
<path d="M2120 1240 c0 -5 7 -10 16 -10 8 0 12 5 9 10 -3 6 -10 10 -16 10 -5
0 -9 -4 -9 -10z"/>
<path d="M1922 1218 c-15 -15 -16 -38 -2 -38 12 0 23 25 18 40 -2 7 -7 7 -16
-2z"/>
<path d="M1655 1211 c-15 -6 -12 -9 20 -14 43 -7 58 -1 35 13 -18 11 -28 11
-55 1z"/>
<path d="M60 1204 c0 -3 6 -12 14 -19 12 -12 15 -11 19 5 4 15 0 20 -14 20
-10 0 -19 -3 -19 -6z"/>
<path d="M1041 1189 c-132 -8 -181 -16 -181 -29 0 -5 8 -25 17 -44 16 -35 17
-36 77 -33 96 3 396 -15 402 -24 3 -5 15 -9 27 -9 13 0 26 -9 32 -22 9 -21 18
-23 101 -26 101 -3 116 4 118 58 1 24 5 30 24 30 15 0 22 -6 22 -20 0 -19 7
-20 183 -21 100 -1 206 -3 235 -4 49 -2 65 6 42 20 -6 3 -41 7 -80 8 -57 2
-73 7 -90 25 -27 28 -94 47 -263 72 -168 24 -197 25 -197 5 0 -8 7 -15 15 -15
8 0 15 -4 15 -10 0 -5 -10 -8 -22 -6 -13 3 -26 5 -30 5 -5 1 -8 9 -8 20 0 14
-10 20 -37 25 -48 7 -254 5 -402 -5z m199 -39 c0 -5 -4 -10 -9 -10 -6 0 -13 5
-16 10 -3 6 1 10 9 10 9 0 16 -4 16 -10z m398 -27 c-10 -2 -28 -2 -40 0 -13 2
-5 4 17 4 22 1 32 -1 23 -4z m52 -9 c0 -8 -4 -12 -10 -9 -5 3 -10 10 -10 16 0
5 5 9 10 9 6 0 10 -7 10 -16z m80 -9 c7 -8 9 -15 6 -15 -4 0 -14 7 -22 15 -9
8 -11 15 -6 15 5 0 15 -7 22 -15z m-266 -35 c12 -12 -2 -30 -23 -30 -21 0 -41
19 -41 38 0 10 7 12 28 7 15 -3 31 -10 36 -15z m86 13 c-1 -33 -15 -53 -36
-53 -20 0 -24 5 -24 30 0 27 3 30 30 30 17 0 30 -3 30 -7z"/>
<path d="M6 1143 c-3 -3 -6 -82 -6 -175 0 -143 2 -168 15 -168 8 0 15 -9 15
-20 0 -11 -7 -20 -15 -20 -10 0 -15 -10 -15 -30 0 -16 4 -30 8 -30 15 0 33
-51 26 -74 -4 -11 -3 -18 1 -14 5 4 14 0 22 -10 11 -15 12 -13 3 11 -13 36
-13 144 -1 152 6 3 7 -16 4 -47 -4 -37 0 -65 11 -92 20 -47 20 -44 -4 -48 -19
-3 -19 -4 5 -44 l24 -41 127 -7 c70 -3 209 -17 308 -31 100 -13 224 -29 276
-35 97 -10 154 -26 145 -40 -10 -16 87 -20 561 -25 307 -3 508 -1 539 5 28 5
106 11 175 12 103 3 125 6 125 18 0 9 -11 16 -25 18 -54 6 -55 13 -5 40 43 24
86 69 97 104 3 8 18 8 53 0 87 -19 125 -23 125 -14 0 5 -33 15 -72 22 -93 17
-123 33 -47 26 30 -3 69 -9 87 -12 l31 -6 1 220 0 221 -38 -5 c-58 -9 -65 -12
-60 -37 4 -20 1 -22 -31 -19 -20 2 -135 7 -256 11 l-220 8 160 3 c254 6 54 16
-310 16 -299 0 -300 0 -80 -6 259 -7 237 -10 -85 -13 l-235 -2 -12 -70 -12
-70 4 70 c3 38 9 71 15 73 13 5 13 22 1 22 -5 0 -17 -7 -25 -16 -22 -21 -22
-183 -1 -223 l14 -29 -62 -7 c-34 -3 -74 -9 -89 -12 -24 -5 -29 0 -59 62 -39
77 -122 170 -145 161 -8 -3 -23 0 -34 6 -26 17 -91 -5 -129 -42 -42 -42 -71
-127 -70 -203 l1 -62 12 67 c6 37 16 71 20 75 5 4 6 -3 2 -17 -18 -65 -19
-140 -2 -185 10 -25 22 -48 28 -51 5 -3 3 8 -6 24 -21 41 -21 170 -1 219 22
53 25 37 9 -47 -11 -58 -12 -85 -3 -121 12 -54 49 -95 76 -85 16 5 16 4 -1 -9
-29 -22 -64 -18 -91 10 -14 13 -25 28 -25 32 0 4 -41 9 -91 11 -94 2 -415 38
-431 48 -18 12 -59 86 -97 179 -44 108 -72 156 -79 137 -3 -10 -9 -9 -23 4
-18 16 -20 16 -40 -2 -12 -10 -30 -31 -39 -47 -17 -27 -17 -27 -24 73 -4 62
-2 108 4 120 16 30 12 68 -9 79 -10 6 -21 7 -25 4z m1580 -225 c71 -86 -33
-211 -111 -133 -34 33 -35 106 -2 139 33 33 81 30 113 -6z m921 -55 c-2 -16
-4 -5 -4 22 0 28 2 40 4 28 2 -13 2 -35 0 -50z m-1417 36 c0 -6 -4 -7 -10 -4
-5 3 -10 11 -10 16 0 6 5 7 10 4 6 -3 10 -11 10 -16z m1339 8 c5 -7 15 -25 20
-40 9 -22 7 -31 -7 -45 -10 -10 -16 -24 -14 -30 7 -23 -29 -25 -51 -3 -23 22
-28 91 -8 115 13 16 47 17 60 3z m-369 -42 c0 -37 -3 -43 -17 -38 -12 5 -14 3
-8 -7 5 -9 4 -11 -3 -6 -15 9 -16 43 -2 51 7 4 7 13 0 26 -9 16 -7 19 10 19
17 0 20 -6 20 -45z m408 20 c-3 -3 -9 2 -12 12 -6 14 -5 15 5 6 7 -7 10 -15 7
-18z m-1358 -104 c0 -55 -3 -72 -12 -68 -7 3 -21 8 -30 12 -11 4 -18 3 -18 -4
0 -6 4 -11 9 -11 12 0 1 -43 -13 -52 -6 -4 -7 -11 -2 -15 5 -4 11 -2 13 5 4
12 33 18 33 7 0 -14 -41 -85 -50 -85 -5 0 -10 -10 -12 -22 -2 -12 -10 -24 -18
-26 -8 -3 -12 -1 -8 2 3 4 1 21 -6 37 -13 31 -9 102 5 94 10 -7 23 39 16 57
-3 7 -6 0 -6 -15 -1 -16 -5 -26 -10 -22 -6 3 -4 23 5 48 12 34 19 42 39 42 15
0 25 -6 25 -15 0 -9 6 -6 16 9 12 16 15 37 12 73 -3 29 -2 44 3 36 5 -7 9 -46
9 -87z m1363 29 c-8 -30 -21 -34 -15 -5 2 14 8 25 12 25 5 0 6 -9 3 -20z m23
-67 c-3 -8 -10 -11 -16 -8 -7 4 -7 12 0 25 5 10 11 29 12 42 1 14 3 10 5 -10
3 -19 2 -41 -1 -49z m-1023 -3 c16 -6 18 -9 5 -9 -21 -1 -48 36 -47 64 0 13 4
8 10 -13 6 -19 19 -37 32 -42z m-1306 8 c-3 -7 -5 -2 -5 12 0 14 2 19 5 13 2
-7 2 -19 0 -25z m2273 -8 c0 -7 -111 -9 -317 -8 l-318 3 285 5 c157 3 300 6
318 8 17 1 32 -2 32 -8z m-802 -7 c-15 -2 -42 -2 -60 0 -18 2 -6 4 27 4 33 0
48 -2 33 -4z m75 0 c-7 -2 -19 -2 -25 0 -7 3 -2 5 12 5 14 0 19 -2 13 -5z
m-1556 -25 c-3 -8 -6 -5 -6 6 -1 11 2 17 5 13 3 -3 4 -12 1 -19z m2421 0 c-4
-10 -113 -14 -524 -18 -285 -4 -520 -7 -521 -8 -2 -1 -3 -18 -3 -38 l0 -37
468 6 c260 3 405 2 327 -3 -77 -4 -290 -11 -472 -15 l-333 -7 0 45 c0 25 -3
52 -6 61 -5 14 38 16 422 18 236 2 478 4 537 6 85 2 108 0 105 -10z m-1155
-15 c-13 -2 -33 -2 -45 0 -13 2 -3 4 22 4 25 0 35 -2 23 -4z m-1002 -143 l24
-19 -57 -1 c-58 0 -68 6 -46 28 18 18 53 15 79 -8z m1179 -56 c30 -2 76 -7
103 -10 26 -4 53 -2 60 4 7 6 60 14 118 17 l106 8 44 -39 c24 -21 46 -40 48
-41 25 -17 -101 -10 -518 27 -129 11 -237 23 -240 26 -23 23 79 26 279 8z"/>
<path d="M1557 916 c10 -13 19 -23 21 -21 7 6 -19 45 -29 45 -5 0 -2 -11 8
-24z"/>
<path d="M1091 744 c0 -11 3 -14 6 -6 3 7 2 16 -1 19 -3 4 -6 -2 -5 -13z"/>
<path d="M1970 1130 c0 -23 9 -25 45 -8 29 13 17 28 -22 28 -16 0 -23 -6 -23
-20z"/>
<path d="M395 1090 c3 -5 10 -10 16 -10 5 0 9 5 9 10 0 6 -7 10 -16 10 -8 0
-12 -4 -9 -10z"/>
<path d="M2316 1051 c-16 -18 -17 -21 -3 -21 9 0 17 -10 19 -22 3 -20 11 -24
71 -32 37 -5 70 -6 73 -3 4 3 4 16 1 29 -12 45 -30 59 -87 65 -47 4 -58 2 -74
-16z m104 -1 l25 -8 -26 -1 c-15 -1 -32 -8 -39 -16 -17 -20 -44 -20 -36 1 3 9
6 20 6 25 0 11 35 10 70 -1z"/>
<path d="M320 670 c0 -24 11 -27 170 -40 69 -6 136 -12 150 -15 74 -12 192
-16 186 -6 -4 6 -27 11 -50 11 -41 0 -43 1 -40 28 2 15 1 19 -2 10 -6 -21 -16
-21 -99 -8 -33 5 -106 11 -162 14 -56 3 -113 10 -127 16 -22 8 -26 7 -26 -10z"/>
</g>
</svg>
